<?xml version="1.0" encoding="UTF-8"?>
<svg id="Capa_1" data-name="Capa 1" xmlns="http://www.w3.org/2000/svg" xmlns:xlink="http://www.w3.org/1999/xlink" viewBox="0 0 884.09 581.26">
  <defs>
    <style>
      .cls-1 {
        fill: url(#Degradado_sin_nombre_98);
      }

      .cls-2 {
        fill: url(#Degradado_sin_nombre_70);
      }

      .cls-3 {
        fill: url(#Degradado_sin_nombre_136);
      }

      .cls-4 {
        fill: url(#Degradado_sin_nombre_69);
      }

      .cls-5 {
        fill: #08688c;
      }

      .cls-6 {
        fill: url(#Degradado_sin_nombre_42);
      }
    </style>
    <linearGradient id="Degradado_sin_nombre_42" data-name="Degradado sin nombre 42" x1="0" y1="204.05" x2="688.46" y2="204.05" gradientUnits="userSpaceOnUse">
      <stop offset="0" stop-color="#098683"/>
      <stop offset="1" stop-color="#41b6b4"/>
    </linearGradient>
    <linearGradient id="Degradado_sin_nombre_136" data-name="Degradado sin nombre 136" x1="117.36" y1="192.03" x2="884.09" y2="192.03" gradientUnits="userSpaceOnUse">
      <stop offset=".06" stop-color="#3cb2af"/>
      <stop offset=".32" stop-color="#269497"/>
      <stop offset=".56" stop-color="#0e737d"/>
      <stop offset=".9" stop-color="#0e737d"/>
    </linearGradient>
    <linearGradient id="Degradado_sin_nombre_69" data-name="Degradado sin nombre 69" x1="396.47" y1="141.22" x2="879.37" y2="141.22" gradientUnits="userSpaceOnUse">
      <stop offset="0" stop-color="#0b727e"/>
      <stop offset="1" stop-color="#78be79"/>
    </linearGradient>
    <radialGradient id="Degradado_sin_nombre_70" data-name="Degradado sin nombre 70" cx="238.46" cy="45.05" fx="238.46" fy="45.05" r="32" gradientUnits="userSpaceOnUse">
      <stop offset="1" stop-color="#41b4b2"/>
      <stop offset="1" stop-color="#43a975"/>
    </radialGradient>
    <linearGradient id="Degradado_sin_nombre_98" data-name="Degradado sin nombre 98" x1="117.36" y1="366.05" x2="688.46" y2="366.05" gradientUnits="userSpaceOnUse">
      <stop offset=".04" stop-color="#3cb2af"/>
      <stop offset=".69" stop-color="#3eb3b0"/>
    </linearGradient>
  </defs>
  <g>
    <polygon class="cls-6" points="107.46 24.05 107.46 55.78 38.46 55.78 38.46 316.47 239.17 115.76 382.46 259.05 472.96 168.55 688.46 384.05 634.46 384.05 473.46 223.05 383.46 313.05 239.46 169.05 24.48 384.03 0 384.03 0 24.05 107.46 24.05"/>
    <polygon class="cls-3" points="117.36 384.05 501.41 0 884.09 382.68 829.46 382.68 501.2 54.42 207.51 348.1 598.63 348.1 634.52 383.99 117.36 384.05"/>
    <polygon class="cls-4" points="432.32 123.3 843.52 123.3 879.37 159.14 396.47 159.14 432.32 123.3"/>
    <circle class="cls-2" cx="238.46" cy="45.05" r="32"/>
  </g>
  <polygon class="cls-1" points="688.46 384.05 117.36 384.05 207.46 348.05 600 348.05 688.46 384.05"/>
  <g>
    <path class="cls-5" d="m234.35,581.26c-12.8,0-24.69-2.1-35.68-6.28-10.99-4.19-20.5-10.15-28.56-17.9-8.06-7.74-14.34-16.83-18.85-27.26s-6.76-21.89-6.76-34.37,2.25-23.94,6.76-34.37c4.5-10.43,10.82-19.52,18.96-27.26,8.14-7.74,17.66-13.71,28.56-17.9,10.9-4.19,22.83-6.28,35.79-6.28,14.38,0,27.38,2.49,38.99,7.47,11.62,4.98,21.37,12.29,29.28,21.93l-24.65,22.76c-5.69-6.48-12.01-11.34-18.96-14.58-6.96-3.24-14.54-4.86-22.76-4.86-7.74,0-14.86,1.27-21.33,3.79-6.48,2.53-12.09,6.16-16.83,10.9-4.74,4.74-8.42,10.35-11.02,16.83-2.61,6.48-3.91,13.67-3.91,21.57s1.3,15.09,3.91,21.57c2.61,6.48,6.28,12.09,11.02,16.83,4.74,4.74,10.35,8.38,16.83,10.9,6.48,2.53,13.59,3.79,21.33,3.79,8.22,0,15.8-1.62,22.76-4.86,6.95-3.24,13.27-8.18,18.96-14.82l24.65,22.76c-7.9,9.64-17.66,16.99-29.28,22.04-11.62,5.06-24.69,7.59-39.23,7.59Z"/>
    <path class="cls-5" d="m326.56,578.41v-165.93h38.4v165.93h-38.4Z"/>
    <path class="cls-5" d="m404.31,578.41v-165.93h31.76l70.64,117.1h-16.83l69.45-117.1h31.53l.47,165.93h-36.03l-.24-110.7h6.64l-55.47,93.16h-17.3l-56.66-93.16h8.06v110.7h-36.03Z"/>
    <path class="cls-5" d="m608.88,578.41l73.96-165.93h37.93l74.2,165.93h-40.3l-60.68-146.5h15.17l-60.92,146.5h-39.35Zm36.98-35.56l10.19-29.16h85.34l10.43,29.16h-105.96Z"/>
  </g>
</svg>